<mxfile host="app.diagrams.net" modified="2021-04-07T05:52:54.065Z" agent="5.0 (Windows)" etag="MJ0GVCVxT0oW27tkPTyw" version="14.4.2" type="github">
  <diagram id="q8g100Bj4Fh_7mA7GeQ9" name="Page-1">
    <mxGraphModel dx="1729" dy="691" grid="1" gridSize="10" guides="1" tooltips="1" connect="1" arrows="1" fold="1" page="1" pageScale="1" pageWidth="850" pageHeight="1100" math="0" shadow="0">
      <root>
        <mxCell id="0" />
        <mxCell id="1" parent="0" />
        <mxCell id="KAjBXZ0OAR34AkEnUGPM-18" value="" style="rounded=0;whiteSpace=wrap;html=1;dashed=1;" vertex="1" parent="1">
          <mxGeometry x="190" y="150" width="350" height="260" as="geometry" />
        </mxCell>
        <mxCell id="KAjBXZ0OAR34AkEnUGPM-1" value="" style="endArrow=classic;html=1;" edge="1" parent="1">
          <mxGeometry width="50" height="50" relative="1" as="geometry">
            <mxPoint x="20" y="280" as="sourcePoint" />
            <mxPoint x="90" y="280" as="targetPoint" />
          </mxGeometry>
        </mxCell>
        <mxCell id="KAjBXZ0OAR34AkEnUGPM-2" value="" style="ellipse;whiteSpace=wrap;html=1;aspect=fixed;" vertex="1" parent="1">
          <mxGeometry x="100" y="255" width="50" height="50" as="geometry" />
        </mxCell>
        <mxCell id="KAjBXZ0OAR34AkEnUGPM-4" value="&lt;font style=&quot;font-size: 14px&quot;&gt;+&lt;/font&gt;" style="text;html=1;strokeColor=none;fillColor=none;align=center;verticalAlign=middle;whiteSpace=wrap;rounded=0;" vertex="1" parent="1">
          <mxGeometry x="70" y="290" width="30" height="20" as="geometry" />
        </mxCell>
        <mxCell id="KAjBXZ0OAR34AkEnUGPM-5" value="&lt;font style=&quot;font-size: 15px&quot;&gt;-&lt;/font&gt;" style="text;html=1;strokeColor=none;fillColor=none;align=center;verticalAlign=middle;whiteSpace=wrap;rounded=0;" vertex="1" parent="1">
          <mxGeometry x="90" y="310" width="30" height="20" as="geometry" />
        </mxCell>
        <mxCell id="KAjBXZ0OAR34AkEnUGPM-7" value="" style="endArrow=classic;html=1;exitX=1;exitY=0.5;exitDx=0;exitDy=0;strokeWidth=2;" edge="1" parent="1" source="KAjBXZ0OAR34AkEnUGPM-2">
          <mxGeometry width="50" height="50" relative="1" as="geometry">
            <mxPoint x="200" y="280" as="sourcePoint" />
            <mxPoint x="280" y="280" as="targetPoint" />
          </mxGeometry>
        </mxCell>
        <mxCell id="KAjBXZ0OAR34AkEnUGPM-27" value="" style="edgeStyle=orthogonalEdgeStyle;rounded=0;jumpSize=6;orthogonalLoop=1;jettySize=auto;html=1;strokeWidth=2;" edge="1" parent="1" source="KAjBXZ0OAR34AkEnUGPM-9" target="KAjBXZ0OAR34AkEnUGPM-26">
          <mxGeometry relative="1" as="geometry" />
        </mxCell>
        <mxCell id="KAjBXZ0OAR34AkEnUGPM-9" value="&lt;font style=&quot;font-size: 13px&quot;&gt;Integral&lt;/font&gt;" style="rounded=0;whiteSpace=wrap;html=1;" vertex="1" parent="1">
          <mxGeometry x="280" y="250" width="120" height="60" as="geometry" />
        </mxCell>
        <mxCell id="KAjBXZ0OAR34AkEnUGPM-10" value="&lt;font style=&quot;font-size: 13px&quot;&gt;Proportional&lt;/font&gt;" style="rounded=0;whiteSpace=wrap;html=1;" vertex="1" parent="1">
          <mxGeometry x="280" y="170" width="120" height="60" as="geometry" />
        </mxCell>
        <mxCell id="KAjBXZ0OAR34AkEnUGPM-11" value="&lt;font style=&quot;font-size: 13px&quot;&gt;Derivative&lt;/font&gt;" style="rounded=0;whiteSpace=wrap;html=1;" vertex="1" parent="1">
          <mxGeometry x="280" y="330" width="120" height="60" as="geometry" />
        </mxCell>
        <mxCell id="KAjBXZ0OAR34AkEnUGPM-13" value="" style="endArrow=classic;html=1;strokeWidth=2;entryX=-0.05;entryY=0.5;entryDx=0;entryDy=0;entryPerimeter=0;" edge="1" parent="1">
          <mxGeometry width="50" height="50" relative="1" as="geometry">
            <mxPoint x="200" y="200" as="sourcePoint" />
            <mxPoint x="280" y="199.5" as="targetPoint" />
          </mxGeometry>
        </mxCell>
        <mxCell id="KAjBXZ0OAR34AkEnUGPM-14" value="" style="endArrow=classic;html=1;strokeWidth=2;entryX=-0.05;entryY=0.5;entryDx=0;entryDy=0;entryPerimeter=0;" edge="1" parent="1">
          <mxGeometry width="50" height="50" relative="1" as="geometry">
            <mxPoint x="200" y="360" as="sourcePoint" />
            <mxPoint x="280" y="359.5" as="targetPoint" />
          </mxGeometry>
        </mxCell>
        <mxCell id="KAjBXZ0OAR34AkEnUGPM-15" value="" style="endArrow=none;html=1;strokeWidth=2;" edge="1" parent="1">
          <mxGeometry width="50" height="50" relative="1" as="geometry">
            <mxPoint x="200" y="360" as="sourcePoint" />
            <mxPoint x="200" y="200" as="targetPoint" />
          </mxGeometry>
        </mxCell>
        <mxCell id="KAjBXZ0OAR34AkEnUGPM-22" value="" style="endArrow=classic;html=1;strokeWidth=2;" edge="1" parent="1">
          <mxGeometry width="50" height="50" relative="1" as="geometry">
            <mxPoint x="490" y="360" as="sourcePoint" />
            <mxPoint x="490" y="310" as="targetPoint" />
          </mxGeometry>
        </mxCell>
        <mxCell id="KAjBXZ0OAR34AkEnUGPM-24" value="" style="endArrow=none;html=1;strokeWidth=2;exitX=1;exitY=0.5;exitDx=0;exitDy=0;jumpSize=6;" edge="1" parent="1" source="KAjBXZ0OAR34AkEnUGPM-11">
          <mxGeometry width="50" height="50" relative="1" as="geometry">
            <mxPoint x="320" y="330" as="sourcePoint" />
            <mxPoint x="490" y="360" as="targetPoint" />
          </mxGeometry>
        </mxCell>
        <mxCell id="KAjBXZ0OAR34AkEnUGPM-26" value="" style="ellipse;whiteSpace=wrap;html=1;aspect=fixed;" vertex="1" parent="1">
          <mxGeometry x="460" y="255" width="50" height="50" as="geometry" />
        </mxCell>
        <mxCell id="KAjBXZ0OAR34AkEnUGPM-28" value="" style="endArrow=classic;html=1;strokeWidth=2;entryX=0.59;entryY=-0.016;entryDx=0;entryDy=0;entryPerimeter=0;" edge="1" parent="1" target="KAjBXZ0OAR34AkEnUGPM-26">
          <mxGeometry width="50" height="50" relative="1" as="geometry">
            <mxPoint x="490" y="200" as="sourcePoint" />
            <mxPoint x="430" y="200" as="targetPoint" />
          </mxGeometry>
        </mxCell>
        <mxCell id="KAjBXZ0OAR34AkEnUGPM-29" value="" style="endArrow=none;html=1;strokeWidth=2;exitX=1;exitY=0.5;exitDx=0;exitDy=0;" edge="1" parent="1" source="KAjBXZ0OAR34AkEnUGPM-10">
          <mxGeometry width="50" height="50" relative="1" as="geometry">
            <mxPoint x="440" y="260" as="sourcePoint" />
            <mxPoint x="490" y="200" as="targetPoint" />
          </mxGeometry>
        </mxCell>
        <mxCell id="KAjBXZ0OAR34AkEnUGPM-30" value="&lt;font style=&quot;font-size: 14px&quot;&gt;+&lt;/font&gt;" style="text;html=1;strokeColor=none;fillColor=none;align=center;verticalAlign=middle;whiteSpace=wrap;rounded=0;" vertex="1" parent="1">
          <mxGeometry x="460" y="235" width="30" height="20" as="geometry" />
        </mxCell>
        <mxCell id="KAjBXZ0OAR34AkEnUGPM-31" value="&lt;font style=&quot;font-size: 14px&quot;&gt;+&lt;/font&gt;" style="text;html=1;strokeColor=none;fillColor=none;align=center;verticalAlign=middle;whiteSpace=wrap;rounded=0;" vertex="1" parent="1">
          <mxGeometry x="430" y="255" width="30" height="20" as="geometry" />
        </mxCell>
        <mxCell id="KAjBXZ0OAR34AkEnUGPM-32" value="&lt;font style=&quot;font-size: 14px&quot;&gt;+&lt;/font&gt;" style="text;html=1;strokeColor=none;fillColor=none;align=center;verticalAlign=middle;whiteSpace=wrap;rounded=0;" vertex="1" parent="1">
          <mxGeometry x="460" y="305" width="30" height="20" as="geometry" />
        </mxCell>
        <mxCell id="KAjBXZ0OAR34AkEnUGPM-33" value="" style="endArrow=classic;html=1;strokeWidth=2;entryX=0;entryY=0.5;entryDx=0;entryDy=0;" edge="1" parent="1" target="KAjBXZ0OAR34AkEnUGPM-36">
          <mxGeometry width="50" height="50" relative="1" as="geometry">
            <mxPoint x="510" y="280" as="sourcePoint" />
            <mxPoint x="580" y="280" as="targetPoint" />
          </mxGeometry>
        </mxCell>
        <mxCell id="KAjBXZ0OAR34AkEnUGPM-36" value="&lt;font style=&quot;font-size: 13px&quot;&gt;Plant&lt;/font&gt;" style="rounded=0;whiteSpace=wrap;html=1;" vertex="1" parent="1">
          <mxGeometry x="590" y="250" width="120" height="60" as="geometry" />
        </mxCell>
        <mxCell id="KAjBXZ0OAR34AkEnUGPM-40" value="" style="endArrow=classic;html=1;strokeWidth=2;" edge="1" parent="1">
          <mxGeometry width="50" height="50" relative="1" as="geometry">
            <mxPoint x="710" y="280" as="sourcePoint" />
            <mxPoint x="790" y="280" as="targetPoint" />
          </mxGeometry>
        </mxCell>
        <mxCell id="KAjBXZ0OAR34AkEnUGPM-41" value="" style="endArrow=none;html=1;strokeWidth=1;" edge="1" parent="1">
          <mxGeometry width="50" height="50" relative="1" as="geometry">
            <mxPoint x="760" y="460" as="sourcePoint" />
            <mxPoint x="760" y="280" as="targetPoint" />
          </mxGeometry>
        </mxCell>
        <mxCell id="KAjBXZ0OAR34AkEnUGPM-42" value="" style="endArrow=none;html=1;strokeWidth=1;" edge="1" parent="1" source="KAjBXZ0OAR34AkEnUGPM-51">
          <mxGeometry width="50" height="50" relative="1" as="geometry">
            <mxPoint x="130" y="460" as="sourcePoint" />
            <mxPoint x="760" y="460" as="targetPoint" />
          </mxGeometry>
        </mxCell>
        <mxCell id="KAjBXZ0OAR34AkEnUGPM-43" value="" style="endArrow=classic;html=1;strokeWidth=1;entryX=0.589;entryY=1.131;entryDx=0;entryDy=0;entryPerimeter=0;" edge="1" parent="1" target="KAjBXZ0OAR34AkEnUGPM-2">
          <mxGeometry width="50" height="50" relative="1" as="geometry">
            <mxPoint x="129" y="460" as="sourcePoint" />
            <mxPoint x="300" y="270" as="targetPoint" />
          </mxGeometry>
        </mxCell>
        <mxCell id="KAjBXZ0OAR34AkEnUGPM-45" value="&lt;font style=&quot;font-size: 14px&quot;&gt;r(t)&lt;/font&gt;" style="text;html=1;strokeColor=none;fillColor=none;align=center;verticalAlign=middle;whiteSpace=wrap;rounded=0;" vertex="1" parent="1">
          <mxGeometry x="50" y="250" width="30" height="20" as="geometry" />
        </mxCell>
        <mxCell id="KAjBXZ0OAR34AkEnUGPM-46" value="&lt;font style=&quot;font-size: 14px&quot;&gt;u(t)&lt;/font&gt;" style="text;html=1;strokeColor=none;fillColor=none;align=center;verticalAlign=middle;whiteSpace=wrap;rounded=0;" vertex="1" parent="1">
          <mxGeometry x="540" y="250" width="30" height="20" as="geometry" />
        </mxCell>
        <mxCell id="KAjBXZ0OAR34AkEnUGPM-47" value="&lt;font style=&quot;font-size: 14px&quot;&gt;h(t)&lt;/font&gt;" style="text;html=1;strokeColor=none;fillColor=none;align=center;verticalAlign=middle;whiteSpace=wrap;rounded=0;" vertex="1" parent="1">
          <mxGeometry x="325" y="430" width="30" height="20" as="geometry" />
        </mxCell>
        <mxCell id="KAjBXZ0OAR34AkEnUGPM-48" value="&lt;font style=&quot;font-size: 14px&quot;&gt;c(t)&lt;/font&gt;" style="text;html=1;strokeColor=none;fillColor=none;align=center;verticalAlign=middle;whiteSpace=wrap;rounded=0;" vertex="1" parent="1">
          <mxGeometry x="350" y="120" width="30" height="20" as="geometry" />
        </mxCell>
        <mxCell id="KAjBXZ0OAR34AkEnUGPM-49" value="&lt;font style=&quot;font-size: 14px&quot;&gt;y(t)&lt;/font&gt;" style="text;html=1;strokeColor=none;fillColor=none;align=center;verticalAlign=middle;whiteSpace=wrap;rounded=0;" vertex="1" parent="1">
          <mxGeometry x="750" y="250" width="30" height="20" as="geometry" />
        </mxCell>
        <mxCell id="KAjBXZ0OAR34AkEnUGPM-51" value="&lt;font style=&quot;font-size: 14px&quot;&gt;Feedback&lt;/font&gt;" style="rounded=0;whiteSpace=wrap;html=1;" vertex="1" parent="1">
          <mxGeometry x="365" y="430" width="120" height="60" as="geometry" />
        </mxCell>
        <mxCell id="KAjBXZ0OAR34AkEnUGPM-52" value="" style="endArrow=none;html=1;strokeWidth=1;" edge="1" parent="1" target="KAjBXZ0OAR34AkEnUGPM-51">
          <mxGeometry width="50" height="50" relative="1" as="geometry">
            <mxPoint x="130" y="460" as="sourcePoint" />
            <mxPoint x="760" y="460" as="targetPoint" />
          </mxGeometry>
        </mxCell>
        <mxCell id="KAjBXZ0OAR34AkEnUGPM-53" value="&lt;font style=&quot;font-size: 14px&quot;&gt;e(t)&lt;/font&gt;" style="text;html=1;strokeColor=none;fillColor=none;align=center;verticalAlign=middle;whiteSpace=wrap;rounded=0;" vertex="1" parent="1">
          <mxGeometry x="150" y="250" width="30" height="20" as="geometry" />
        </mxCell>
      </root>
    </mxGraphModel>
  </diagram>
</mxfile>
